USFL
nRows=140
nColumns=2
inDegrees=yes
endheader
time	med_gas_r	
2.4375	 47.691794	
2.5	 47.637139	
2.5625	 47.623164	
2.625	 47.690439	
2.6875	 47.734991	
2.75	 47.787659	
2.8125	 47.745535	
2.875	 47.689321	
2.9375	 47.743956	
3	 47.770474	
3.0625	 47.831999	
3.125	 47.797497	
3.1875	 47.823633	
3.25	 47.857677	
3.3125	 47.823129	
3.375	 47.774625	
3.4375	 47.776939	
3.5	 47.808702	
3.5625	 47.746776	
3.625	 47.634640	
3.6875	 47.696201	
3.75	 47.781655	
3.8125	 47.743626	
3.875	 47.778594	
3.9375	 47.749483	
4	 47.684386	
4.0625	 47.701013	
4.125	 47.684713	
4.1875	 47.575507	
4.25	 47.561389	
4.3125	 47.586227	
4.375	 47.474451	
4.4375	 47.592250	
4.5	 47.592619	
4.5625	 47.687308	
4.625	 47.555377	
4.6875	 47.526548	
4.75	 47.649721	
4.8125	 47.550465	
4.875	 47.490927	
4.9375	 47.331121	
5	 47.482652	
5.0625	 47.642808	
5.125	 47.692480	
5.1875	 47.610277	
5.25	 47.439815	
5.3125	 47.313238	
5.375	 47.638048	
5.4375	 47.928128	
5.5	 45.645741	
5.5625	 45.395234	
5.625	 45.283894	
5.6875	 45.086166	
5.75	 44.979942	
5.8125	 44.866558	
5.875	 44.802775	
5.9375	 44.785218	
6	 44.657277	
6.0625	 44.533033	
6.125	 44.328704	
6.1875	 43.862458	
6.25	 43.798496	
6.3125	 43.672134	
6.375	 43.513872	
6.4375	 43.482166	
6.5	 43.449624	
6.5625	 43.369218	
6.625	 43.304931	
6.6875	 43.121640	
6.75	 42.935672	
6.8125	 42.881952	
6.875	 42.794796	
6.9375	 42.685223	
7	 42.653419	
7.0625	 42.620272	
7.125	 42.705020	
7.1875	 42.660570	
7.25	 42.638105	
7.3125	 42.451070	
7.375	 42.292330	
7.4375	 42.155148	
7.5	 41.871925	
7.5625	 41.722822	
7.625	 41.562279	
7.6875	 41.345779	
7.75	 41.272913	
7.8125	 41.193303	
7.875	 40.997706	
7.9375	 40.874702	
8	 40.734981	
8.0625	 40.625649	
8.125	 40.456691	
8.1875	 40.433391	
8.25	 40.403336	
8.3125	 40.536951	
8.375	 40.520830	
8.4375	 40.606168	
8.5	 40.705835	
8.5625	 40.745542	
8.625	 40.917867	
8.6875	 41.062958	
8.75	 41.116350	
8.8125	 41.299141	
8.875	 41.395743	
8.9375	 41.365826	
9	 41.293489	
9.0625	 41.260915	
9.125	 41.155800	
9.1875	 40.907574	
9.25	 40.833404	
9.3125	 40.722360	
9.375	 40.589316	
9.4375	 40.449809	
9.5	 40.372633	
9.5625	 40.310264	
9.625	 40.415004	
9.6875	 40.362671	
9.75	 40.292141	
9.8125	 40.107294	
9.875	 40.056937	
9.9375	 40.110923	
10	 40.166366	
10.0625	 40.156038	
10.125	 40.206407	
10.1875	 40.139038	
10.25	 40.216149	
10.3125	 40.433071	
10.375	 42.572593	
10.4375	 43.374623	
10.5	 46.180426	
10.5625	 46.598956	
10.625	 50.045180	
10.6875	 49.931882	
10.75	 49.956690	
10.8125	 49.769116	
10.875	 49.670222	
10.9375	 49.838056	
11	 49.827303	
11.0625	 49.826341	
11.125	 49.841642	
